<?xml version="1.0" encoding="UTF-8" standalone="no"?>
<!-- Created with Inkscape (http://www.inkscape.org/) -->

<svg
   width="103.08302mm"
   height="44.237846mm"
   viewBox="0 0 103.08301 44.237848"
   version="1.1"
   id="svg1"
   inkscape:version="1.4 (86a8ad7, 2024-10-11)"
   sodipodi:docname="raytracing.svg"
   xmlns:inkscape="http://www.inkscape.org/namespaces/inkscape"
   xmlns:sodipodi="http://sodipodi.sourceforge.net/DTD/sodipodi-0.dtd"
   xmlns="http://www.w3.org/2000/svg"
   xmlns:svg="http://www.w3.org/2000/svg">
  <sodipodi:namedview
     id="namedview1"
     pagecolor="#ffffff"
     bordercolor="#000000"
     borderopacity="0.25"
     inkscape:showpageshadow="2"
     inkscape:pageopacity="0.0"
     inkscape:pagecheckerboard="0"
     inkscape:deskcolor="#d1d1d1"
     inkscape:document-units="mm"
     inkscape:zoom="2.2299458"
     inkscape:cx="208.74947"
     inkscape:cy="106.50483"
     inkscape:window-width="1920"
     inkscape:window-height="1129"
     inkscape:window-x="1192"
     inkscape:window-y="410"
     inkscape:window-maximized="1"
     inkscape:current-layer="svg1" />
  <defs
     id="defs1" />
  <g
     inkscape:label="Layer 1"
     inkscape:groupmode="layer"
     id="layer1"
     transform="translate(-100.96996,-31.44931)" />
  <path
     id="path8"
     style="fill:none;fill-opacity:1;stroke:#000000;stroke-width:0.692655;stroke-opacity:1"
     d="m 58.550593,43.476489 c 0.239826,-0.02854 0.479828,-0.05868 0.719386,-0.09004 0.344,-0.0448 0.686945,-0.09234 1.030945,-0.143143 0.343,-0.0508 0.686911,-0.104947 1.029911,-0.161747 0.344,-0.0568 0.686945,-0.116518 1.030945,-0.179318 0.343,-0.0628 0.686912,-0.128604 1.029912,-0.197404 0.344,-0.0687 0.687461,-0.14069 1.031461,-0.21549 0.343,-0.0747 0.686911,-0.152361 1.029911,-0.233061 0.344,-0.0807 0.686945,-0.164448 1.030945,-0.251148 0.343,-0.0867 0.686912,-0.176534 1.029912,-0.269234 0.344,-0.0927 0.686944,-0.188104 1.030944,-0.286804 0.343,-0.0987 0.686912,-0.200291 1.029912,-0.304891 0.344,-0.1047 0.686944,-0.212278 1.030944,-0.322978 0.343,-0.1106 0.687429,-0.224464 1.030429,-0.341064 0.344,-0.1166 0.686944,-0.236034 1.030944,-0.358634 0.343,-0.1226 0.686912,-0.248638 1.029912,-0.377238 0.344,-0.1286 0.686944,-0.259792 1.030944,-0.394292 0.343,-0.1346 0.686912,-0.272394 1.029912,-0.412894 0.344,-0.1405 0.687945,-0.283965 1.030945,-0.430465 0.344,-0.1465 0.686944,-0.296051 1.030944,-0.448551 0.343,-0.1525 0.687428,-0.308139 1.030428,-0.466639 0.344,-0.1584 0.686945,-0.320225 1.030945,-0.484725 0.343,-0.1645 0.686912,-0.331794 1.029912,-0.502294 0.344,-0.1704 0.686944,-0.343982 1.030944,-0.520382 0.343,-0.1764 0.686912,-0.355552 1.029912,-0.537952 0.344,-0.1824 0.686945,-0.368155 1.030945,-0.556555 0.343,-0.1884 0.686911,-0.379208 1.029911,-0.573608 0.344,-0.1944 0.686945,-0.391912 1.030945,-0.592212 0.343,-0.2004 0.687428,-0.403999 1.030428,-0.610299 0.344,-0.2064 0.686945,-0.415569 1.030945,-0.627869 0.343,-0.2123 0.686911,-0.427655 1.029911,-0.645955 0.344,-0.2183 0.686945,-0.439742 1.030945,-0.664042 0.343,-0.2243 0.686911,-0.451312 1.029911,-0.681612 0.344,-0.2302 0.686945,-0.463499 1.030945,-0.699699 0.343,-0.2363 0.686911,-0.475586 1.029911,-0.717786 0.344,-0.2422 0.687462,-0.487155 1.031462,-0.735355 0.343,-0.2482 0.686911,-0.49976 1.029911,-0.75396 0.344,-0.2542 0.686945,-0.510912 1.030945,-0.771012 0.343,-0.2602 0.686911,-0.523416 1.029911,-0.789616 0.344,-0.2661 0.686945,-0.535603 1.030945,-0.807703 0.343,-0.2721 0.686911,-0.547172 1.029911,-0.825272 0.344,-0.2781 0.686946,-0.55926 1.030946,-0.84336 0.343,-0.2841 0.68743,-0.570929 1.03043,-0.860929 0.344,-0.2901 0.68694,-0.582916 1.03094,-0.879016 -0.344,-0.296 -0.68694,-0.589533 -1.03094,-0.879533 -0.343,-0.2901 -0.68743,-0.576829 -1.03043,-0.860929 -0.344,-0.284 -0.686946,-0.56526 -1.030946,-0.84336 -0.343,-0.2781 -0.686911,-0.553172 -1.029911,-0.825272 -0.344,-0.2721 -0.686945,-0.541503 -1.030945,-0.807703 -0.343,-0.2661 -0.686911,-0.528999 -1.029911,-0.789099 -0.344,-0.2602 -0.686945,-0.517429 -1.030945,-0.771529 -0.343,-0.2542 -0.686911,-0.505759 -1.029911,-0.753959 -0.344,-0.2482 -0.687462,-0.493156 -1.031462,-0.735356 -0.343,-0.2423 -0.686911,-0.481586 -1.029911,-0.717786 -0.344,-0.2363 -0.686945,-0.469398 -1.030945,-0.699698 -0.343,-0.2302 -0.686911,-0.457313 -1.029911,-0.681613 -0.344,-0.2242 -0.686945,-0.445742 -1.030945,-0.664042 -0.343,-0.2183 -0.686911,-0.433555 -1.029911,-0.645955 -0.344,-0.2123 -0.686945,-0.421569 -1.030945,-0.627869 -0.343,-0.2064 -0.687428,-0.409898 -1.030428,-0.6102976 -0.344,-0.200301 -0.686945,-0.397396 -1.030945,-0.591696 -0.343,-0.1944 -0.686911,-0.385725 -1.029911,-0.574125 -0.344,-0.1884 -0.686945,-0.374155 -1.030945,-0.556555 -0.343,-0.1824 -0.686912,-0.361452 -1.029912,-0.537952 -0.344,-0.1764 -0.686944,-0.349881 -1.030944,-0.520381 -0.343,-0.1704 -0.686912,-0.337795 -1.029912,-0.502295 -0.344,-0.1644 -0.686945,-0.326225 -1.030945,-0.484725 -0.343,-0.1585 -0.687428,-0.314138 -1.030428,-0.466638 -0.344,-0.1525 -0.686944,-0.301952 -1.030944,-0.448552 -0.343,-0.1465 -0.686945,-0.289864 -1.030945,-0.430464 -0.343,-0.1405 -0.686912,-0.277878 -1.029912,-0.412378 -0.344,-0.1346 -0.686944,-0.266208 -1.030944,-0.394808 -0.343,-0.1285 -0.686912,-0.254122 -1.029912,-0.376722 -0.344,-0.1226 -0.686944,-0.242551 -1.030944,-0.359151 -0.343,-0.1166 -0.687429,-0.230364 -1.030429,-0.341064 -0.344,-0.1106 -0.686944,-0.217861 -1.030944,-0.322461 -0.343,-0.1047 -0.686912,-0.206708 -1.029912,-0.305408 -0.344,-0.0986 -0.686944,-0.194104 -1.030944,-0.286804 -0.343,-0.0927 -0.686912,-0.182534 -1.029912,-0.269234 -0.344,-0.0867 -0.686945,-0.170348 -1.030945,-0.251148 -0.343,-0.0807 -0.686911,-0.15836 -1.029911,-0.23306 -0.344,-0.0748 -0.687461,-0.146691 -1.031461,-0.215491 -0.343,-0.0688 -0.686912,-0.13460398 -1.029912,-0.19740398 -0.344,-0.0628 -0.686945,-0.122517 -1.030945,-0.179317 -0.343,-0.0568 -0.686911,-0.110848 -1.029911,-0.161748 -0.344,-0.0508 -0.686945,-0.09834 -1.030945,-0.143143 -0.239572,-0.03136 -0.479589,-0.0612 -0.719429,-0.08959" />
  <path
     id="path7"
     style="fill:none;fill-opacity:1;stroke:#000000;stroke-width:0.692655;stroke-opacity:1"
     d="m 43.48222,43.342492 c 0.110211,0.01494 0.220462,0.02959 0.330821,0.04396 0.343,0.0449 0.686911,0.08729 1.029911,0.126091 0.344,0.0389 0.686945,0.07459 1.030945,0.107487 0.343,0.0329 0.686911,0.06302 1.029911,0.08992 0.344,0.0269 0.686945,0.05031 1.030945,0.07131 0.343,0.0209 0.687428,0.03926 1.030428,0.05426 0.344,0.015 0.686945,0.02666 1.030945,0.03566 0.343,0.009 0.686911,0.01509 1.029911,0.01809 0.344,0.003 0.686945,0.003 1.030945,0 0.343,-0.003 0.686911,-0.0091 1.029911,-0.01809 0.344,-0.009 0.686945,-0.02066 1.030945,-0.03566 0.343001,-0.0149 0.686912,-0.03336 1.029912,-0.05426 0.344,-0.021 0.686945,-0.04441 1.030945,-0.07131 0.343,-0.0269 0.687428,-0.05702 1.030428,-0.08992 0.344,-0.0329 0.686945,-0.06859 1.030945,-0.107487 0.103442,-0.0117 0.206967,-0.02373 0.310525,-0.03605" />
  <path
     id="path6"
     style="fill:none;fill-opacity:1;stroke:#000000;stroke-width:0.692655;stroke-opacity:1"
     d="m 43.48222,0.47750042 c -0.233329,0.03166 -0.466483,0.06466 -0.700124,0.09916 -0.343,0.0509 -0.686911,0.104948 -1.029911,0.161748 -0.344,0.0568 -0.687462,0.116517 -1.031462,0.179317 -0.343,0.0628 -0.686911,0.12860398 -1.029911,0.19740398 -0.344,0.0688 -0.686945,0.140691 -1.030945,0.215491 -0.343,0.0748 -0.686911,0.15236 -1.029911,0.23306 -0.344,0.0808 -0.686945,0.164448 -1.030945,0.251148 -0.343,0.0868 -0.686912,0.176534 -1.029912,0.269234 -0.344,0.0927 -0.686944,0.188204 -1.030944,0.286804 -0.343,0.0987 -0.687427,0.200708 -1.030427,0.305408 -0.344,0.1046 -0.686945,0.211861 -1.030945,0.322461 -0.343,0.1107 -0.686912,0.224464 -1.029912,0.341064 -0.344,0.1166 -0.686944,0.236451 -1.030944,0.359151 -0.343,0.1226 -0.686912,0.248222 -1.029912,0.376722 -0.344,0.1286 -0.686945,0.260208 -1.030945,0.394808 -0.343,0.1345 -0.686911,0.271878 -1.029911,0.412378 -0.344,0.1406 -0.687461,0.283964 -1.031461,0.430464 -0.343,0.1466 -0.686912,0.296052 -1.029912,0.448552 -0.344,0.1525 -0.686945,0.308138 -1.030945,0.466638 -0.343,0.1585 -0.686911,0.320325 -1.029911,0.484725 -0.344,0.1645 -0.686945,0.331895 -1.030945,0.502295 -0.343,0.1705 -0.686911,0.343981 -1.029911,0.520381 -0.344,0.1765 -0.686945,0.355552 -1.030945,0.537952 -0.343,0.1824 -0.687428,0.368155 -1.030428,0.556555 -0.344,0.1884 -0.686945,0.379725 -1.030945,0.574125 -0.343,0.1943 -0.686911,0.391395 -1.029911,0.591696 -0.344,0.2003996 -0.686945,0.4038976 -1.030945,0.6102976 -0.343,0.2063 -0.686945,0.415569 -1.030945,0.627869 -0.343,0.2124 -0.686911,0.427655 -1.029911,0.645955 -0.344,0.2183 -0.686945,0.439742 -1.030945,0.664042 -0.343,0.2243 -0.687428,0.451413 -1.030428,0.681613 -0.344,0.2303 -0.686945,0.463398 -1.030945,0.699698 -0.343,0.2362 -0.686911,0.475486 -1.0299114,0.717786 -0.344,0.2422 -0.686945,0.487156 -1.030945,0.735356 -0.343,0.2482 -0.686911,0.499759 -1.029911,0.753959 -0.344,0.2541 -0.686945,0.511329 -1.030945,0.771529 -0.343,0.2601 -0.686911,0.522999 -1.029911,0.789099 -0.344,0.2662 -0.686945,0.535603 -1.030945,0.807703 -0.343,0.2721 -0.687428,0.547072 -1.030428,0.825272 -0.344,0.2781 -0.686945,0.55926 -1.030945,0.84336 -0.343,0.2841 -0.686911,0.570829 -1.029911,0.860929 -0.344,0.29 -0.68694497,0.583533 -1.03094497,0.879533 0.344,0.2961 0.68694497,0.588916 1.03094497,0.879016 0.343,0.29 0.686911,0.576829 1.029911,0.860929 0.344,0.2841 0.686945,0.56526 1.030945,0.84336 0.343,0.2781 0.687428,0.553172 1.030428,0.825272 0.344,0.2721 0.686945,0.541603 1.030945,0.807703 0.343,0.2662 0.686911,0.529416 1.029911,0.789616 0.344,0.2601 0.686945,0.516812 1.030945,0.771012 0.343,0.2542 0.686911,0.50576 1.029911,0.75396 0.344,0.2482 0.686945,0.493155 1.030945,0.735355 0.3430004,0.2422 0.6869114,0.481486 1.0299114,0.717786 0.344,0.2362 0.686945,0.469399 1.030945,0.699699 0.343,0.2303 0.687428,0.457312 1.030428,0.681612 0.344,0.2243 0.686945,0.445742 1.030945,0.664042 0.343,0.2183 0.686911,0.433655 1.029911,0.645955 0.344,0.2123 0.687945,0.421469 1.030945,0.627869 0.344,0.2063 0.686945,0.409899 1.030945,0.610299 0.343,0.2004 0.686911,0.397812 1.029911,0.592212 0.344,0.1944 0.686945,0.385208 1.030945,0.573608 0.343,0.1884 0.687428,0.374155 1.030428,0.556555 0.344,0.1825 0.686945,0.361552 1.030945,0.537952 0.343,0.1764 0.686911,0.349982 1.029911,0.520382 0.344,0.1705 0.686945,0.337794 1.030945,0.502294 0.343,0.1645 0.686911,0.326225 1.029911,0.484725 0.344,0.1585 0.686945,0.314139 1.030945,0.466639 0.343,0.1525 0.686912,0.302051 1.029912,0.448551 0.344,0.1465 0.687461,0.289965 1.031461,0.430465 0.343,0.1406 0.686911,0.278294 1.029911,0.412894 0.344,0.1345 0.686945,0.265692 1.030945,0.394292 0.343,0.1286 0.686912,0.254638 1.029912,0.377238 0.344,0.1226 0.686944,0.242034 1.030944,0.358634 0.343,0.1167 0.686912,0.230464 1.029912,0.341064 0.344,0.1107 0.686945,0.218278 1.030945,0.322978 0.343,0.1046 0.687427,0.206191 1.030427,0.304891 0.344,0.0987 0.686944,0.194104 1.030944,0.286804 0.343,0.0927 0.686912,0.182534 1.029912,0.269234 0.344,0.0867 0.686945,0.170448 1.030945,0.251148 0.343,0.0807 0.686911,0.158361 1.029911,0.233061 0.344,0.0748 0.686945,0.14679 1.030945,0.21549 0.343,0.0688 0.686911,0.134604 1.029911,0.197404 0.344,0.0628 0.687462,0.122518 1.031462,0.179318 0.343,0.0569 0.686911,0.110947 1.029911,0.161747 0.233641,0.03457 0.466795,0.06755 0.700124,0.09918" />
  <rect
     style="fill:#f62fd3;fill-opacity:0.616247;stroke:none;stroke-width:0.542999;stroke-opacity:1"
     id="rect8"
     width="13.051514"
     height="12.220963"
     x="44.431477"
     y="31.726873" />
</svg>
